<svg width="29" height="28" viewBox="0 0 29 28" fill="none" xmlns="http://www.w3.org/2000/svg">
<path d="M21.1461 0.108227C19.7855 0.129391 18.4545 0.509216 17.2876 1.20935C16.1208 1.90948 15.1593 2.90512 14.5003 4.09573C13.8413 2.90512 12.8798 1.90948 11.713 1.20935C10.5461 0.509216 9.21511 0.129391 7.85446 0.108227C5.68543 0.202466 3.64186 1.15133 2.1702 2.74751C0.698542 4.34369 -0.0815698 6.45745 0.000295467 8.62698C0.000295467 16.8134 13.2388 26.2686 13.8019 26.6698L14.5003 27.164L15.1987 26.6698C15.7618 26.2711 29.0003 16.8134 29.0003 8.62698C29.0822 6.45745 28.302 4.34369 26.8304 2.74751C25.3587 1.15133 23.3152 0.202466 21.1461 0.108227Z" fill="white"/>
</svg>
