<svg width="8" height="14" viewBox="0 0 8 14" fill="none" xmlns="http://www.w3.org/2000/svg">
<path d="M2.59992 7.71002C2.50619 7.61705 2.4318 7.50645 2.38103 7.38459C2.33026 7.26273 2.30412 7.13203 2.30412 7.00002C2.30412 6.868 2.33026 6.7373 2.38103 6.61544C2.4318 6.49358 2.50619 6.38298 2.59992 6.29002L7.18992 1.71001C7.28365 1.61705 7.35804 1.50645 7.40881 1.38459C7.45958 1.26273 7.48572 1.13203 7.48572 1.00001C7.48572 0.868003 7.45958 0.737297 7.40881 0.615438C7.35804 0.493578 7.28365 0.382977 7.18992 0.290014C7.00256 0.103763 6.74911 -0.000778198 6.48492 -0.000778198C6.22074 -0.000778198 5.96728 0.103763 5.77992 0.290014L1.18992 4.88001C0.628119 5.44252 0.312561 6.20501 0.312561 7.00002C0.312561 7.79502 0.628119 8.55751 1.18992 9.12002L5.77992 13.71C5.96618 13.8948 6.21758 13.9989 6.47992 14C6.61153 14.0008 6.74199 13.9756 6.86383 13.9258C6.98567 13.876 7.09648 13.8027 7.18992 13.71C7.28365 13.6171 7.35804 13.5065 7.40881 13.3846C7.45958 13.2627 7.48572 13.132 7.48572 13C7.48572 12.868 7.45958 12.7373 7.40881 12.6154C7.35804 12.4936 7.28365 12.383 7.18992 12.29L2.59992 7.71002Z" fill="white"/>
</svg>
