<svg width="23" height="23" viewBox="0 0 23 23" fill="none" xmlns="http://www.w3.org/2000/svg">
<path d="M18.1263 10.6004C18.8866 9.40636 19.1415 7.95922 18.8348 6.57731C18.5281 5.1954 17.685 3.99192 16.491 3.23162C15.297 2.47133 13.8498 2.21649 12.4679 2.52318C11.086 2.82987 9.88252 3.67296 9.12223 4.86698L9.08116 4.92171L9.04894 4.98208C8.31157 6.16435 8.06805 7.58893 8.37082 8.94901C8.41082 9.13569 8.46184 9.31984 8.52362 9.50049L4.74411 18.0938C4.62959 18.3538 4.61205 18.6462 4.69469 18.918C4.77733 19.1898 4.95466 19.4229 5.19451 19.5751L6.46058 20.3813C6.69997 20.5342 6.98626 20.5963 7.2675 20.5562C7.54873 20.5161 7.80627 20.3765 7.99339 20.1628L14.1811 13.1029C14.3709 13.0825 14.5593 13.0508 14.7454 13.0081C16.1059 12.7071 17.2937 11.8838 18.0531 10.7155L18.0941 10.6607L18.1263 10.6004ZM17.6452 6.89074C17.8406 7.76638 17.7448 8.68189 17.3724 9.49811L10.44 5.0839C10.9416 4.4974 11.5969 4.06245 12.3321 3.82793C13.0674 3.5934 13.8535 3.56861 14.602 3.75633C15.3506 3.94404 16.032 4.33684 16.5696 4.89055C17.1072 5.44426 17.4797 6.13694 17.6452 6.89074ZM7.09762 19.3809L5.83156 18.5747L9.22361 10.8732C10.0341 12.0179 11.261 12.7992 12.6411 13.0493L7.09762 19.3809ZM9.53012 8.69172C9.33467 7.81608 9.43047 6.90057 9.80293 6.08436L10.44 5.0839L17.3724 9.49811C16.8707 10.0846 15.5784 11.52 14.8432 11.7545C14.1079 11.9891 13.3218 12.0139 12.5732 11.8261C11.8247 11.6384 11.1433 11.2456 10.6057 10.6919C10.0681 10.1382 9.69564 9.44552 9.53012 8.69172Z" fill="#C4C4C4"/>
</svg>
