<svg width="24" height="24" viewBox="0 0 24 24" fill="none" xmlns="http://www.w3.org/2000/svg">
<path d="M16.3395 15.4905C15.876 15.3442 15.2843 14.9632 14.622 14.3002C14.0535 13.7437 13.467 13.0267 12.867 12.2452C12.723 12.4365 12.5798 12.6277 12.4358 12.8227C12.0435 13.3537 11.6423 13.89 11.2335 14.4172C12.6615 16.1497 14.1435 17.8507 16.341 18.1312V20.1562L22.0073 16.8862L16.3403 13.614V15.4905H16.3395ZM6.894 8.95047C7.461 9.50547 8.0475 10.2225 8.649 11.004C8.7945 10.8075 8.9415 10.614 9.0885 10.413C9.48033 9.88084 9.87836 9.35331 10.2825 8.83047C8.7585 6.98247 7.18275 5.15022 4.7355 5.06247H2.1105V7.68747H4.7355C5.22675 7.66722 5.997 8.05122 6.894 8.94972V8.95047ZM16.3395 7.75572V9.65772L22.0065 6.38547L16.3395 3.11322V5.09847C14.9115 5.26347 13.7708 6.10947 12.777 7.08147C11.1293 8.71947 9.68925 10.9575 8.268 12.7365C6.86775 14.5642 5.463 15.6517 4.734 15.564H2.109V18.189H4.734C6.37275 18.1665 7.644 17.2395 8.739 16.1692C10.3845 14.5312 11.826 12.294 13.2465 10.5157C14.4038 9.00297 15.5595 8.01072 16.3395 7.75572Z" fill="#C4C4C4"/>
</svg>
