<svg width="148" height="45" viewBox="0 0 148 45" fill="none" xmlns="http://www.w3.org/2000/svg">
<g clip-path="url(#clip0_494_10983)">
<path fill-rule="evenodd" clip-rule="evenodd" d="M135.505 38.7564C134.108 38.7564 132.979 38.4707 131.729 37.8047C131.672 37.7755 131.628 37.7249 131.607 37.6637C131.586 37.6025 131.59 37.5356 131.618 37.4773L132.817 34.8887C132.832 34.857 132.853 34.8287 132.879 34.8053C132.905 34.7819 132.935 34.764 132.968 34.7526C133.037 34.7323 133.111 34.7391 133.174 34.7717C133.845 35.1339 134.502 35.3162 135.125 35.3162C135.894 35.3162 136.46 35.0676 137.032 33.8143L131.977 21.8871H128.676V33.8154C128.675 33.8839 128.648 33.9493 128.599 33.9973C128.551 34.0454 128.485 34.0722 128.417 34.0719H124.882C124.848 34.0721 124.815 34.0656 124.784 34.0528C124.752 34.04 124.724 34.0211 124.7 33.9973C124.676 33.9735 124.657 33.9451 124.644 33.9139C124.631 33.8827 124.624 33.8493 124.624 33.8154V21.8871H122.926C122.893 21.8874 122.859 21.881 122.828 21.8683C122.797 21.8556 122.768 21.8369 122.744 21.8132C122.72 21.7895 122.701 21.7613 122.688 21.7301C122.675 21.699 122.668 21.6655 122.667 21.6317V18.6291C122.668 18.5608 122.696 18.4957 122.745 18.4479C122.793 18.4001 122.858 18.3734 122.926 18.3737H124.624V17.6368C124.624 14.2168 126.351 12.4078 129.616 12.4078C130.957 12.4078 131.854 12.6193 132.554 12.8241C132.607 12.8396 132.653 12.8716 132.685 12.9154C132.718 12.9591 132.736 13.0123 132.736 13.0671V15.9977C132.736 16.0386 132.727 16.0789 132.708 16.1155C132.69 16.152 132.663 16.1837 132.631 16.2081C132.597 16.2311 132.558 16.2459 132.517 16.2516C132.477 16.2573 132.435 16.2535 132.396 16.2407C131.734 16.0236 131.142 15.8784 130.405 15.8784C129.168 15.8784 128.618 16.5096 128.618 17.9237V18.4052H134.658C134.764 18.4052 134.862 18.4693 134.898 18.5683L139.028 29.1681L142.798 18.5762C142.816 18.5256 142.849 18.4819 142.893 18.4513C142.936 18.4206 142.989 18.4045 143.042 18.4052H146.723C146.809 18.4052 146.887 18.4457 146.936 18.5143C146.959 18.5486 146.974 18.588 146.979 18.6291C146.983 18.6703 146.978 18.7119 146.963 18.7506L140.83 34.3419C139.557 37.5594 138.114 38.7564 135.505 38.7564ZM119.011 16.4679C117.612 16.4679 116.474 15.3519 116.474 13.9738C116.474 12.5946 117.612 11.4797 119.011 11.4797C120.41 11.4797 121.546 12.5946 121.546 13.9738C121.546 15.3519 120.41 16.4679 119.011 16.4679ZM111.175 21.8871V29.0769C111.175 30.2109 111.682 30.7172 112.815 30.7172C113.551 30.7172 114.209 30.5619 114.89 30.2256C114.929 30.206 114.973 30.1968 115.017 30.1987C115.061 30.2007 115.104 30.2138 115.142 30.2368C115.179 30.2593 115.21 30.2912 115.232 30.3292C115.253 30.3673 115.264 30.4102 115.264 30.4539V33.3013C115.264 33.3461 115.251 33.39 115.228 33.4284C115.205 33.4668 115.172 33.4983 115.133 33.5196C114.142 34.0742 113.09 34.3318 111.822 34.3318C108.704 34.3318 107.123 32.7467 107.123 29.6226V21.8871H105.422C105.389 21.8872 105.355 21.8807 105.324 21.868C105.293 21.8552 105.265 21.8364 105.241 21.8127C105.217 21.789 105.198 21.7608 105.185 21.7298C105.172 21.6987 105.166 21.6654 105.165 21.6317V18.6448C105.165 18.5031 105.281 18.3894 105.422 18.3894H107.123V14.4744C107.123 14.3349 107.238 14.2213 107.382 14.2213H110.916C111.06 14.2213 111.175 14.3349 111.175 14.4744V18.3894H115.065C115.207 18.3894 115.322 18.5031 115.322 18.6448V21.6317C115.322 21.6655 115.315 21.6989 115.302 21.73C115.289 21.7612 115.27 21.7894 115.246 21.8131C115.222 21.8369 115.194 21.8556 115.163 21.8683C115.132 21.881 115.098 21.8874 115.065 21.8871H111.175ZM96.365 34.4173C91.6335 34.4173 87.9267 30.8477 87.9267 26.2892C87.9267 21.6801 91.6592 18.0711 96.4233 18.0711C101.172 18.0711 104.891 21.6553 104.891 26.2307C104.891 30.8218 101.147 34.4173 96.365 34.4173ZM96.365 21.6283C93.8221 21.6283 91.9788 23.5633 91.9788 26.2307C91.9788 28.8857 93.8893 30.8904 96.4233 30.8904C98.9819 30.8904 100.839 28.9554 100.839 26.2892C100.839 23.6308 98.9157 21.6283 96.365 21.6283ZM79.3786 34.3892C77.3885 34.3892 75.7549 33.6613 74.4083 32.1741V38.4144C74.408 38.4482 74.401 38.4815 74.3878 38.5125C74.3746 38.5435 74.3554 38.5716 74.3314 38.5952C74.3073 38.6187 74.2788 38.6372 74.2475 38.6496C74.2163 38.6621 74.1829 38.6682 74.1493 38.6676H70.6152C70.5816 38.6682 70.5482 38.6621 70.517 38.6496C70.4857 38.6372 70.4572 38.6187 70.4331 38.5952C70.4091 38.5716 70.3899 38.5435 70.3767 38.5125C70.3635 38.4815 70.3565 38.4482 70.3562 38.4144V18.6448C70.3562 18.5031 70.4717 18.3894 70.6152 18.3894H74.1493C74.2928 18.3894 74.4083 18.5031 74.4083 18.6448V20.4223C75.7549 18.8428 77.3885 18.0711 79.3786 18.0711C83.0786 18.0711 86.8246 20.8723 86.8246 26.2307C86.8246 31.5868 83.0786 34.3892 79.3786 34.3892ZM78.5612 21.6002C76.1428 21.6002 74.3197 23.5892 74.3197 26.2307C74.3197 28.8711 76.1428 30.8612 78.5612 30.8612C81.0055 30.8612 82.7131 28.9566 82.7131 26.2307C82.7131 23.5464 80.9662 21.6002 78.5612 21.6002ZM62.214 21.9017C67.0262 23.0514 68.9872 24.8402 68.9872 28.0689C68.9872 31.8894 66.0171 34.3599 61.4246 34.3599C58.2201 34.3764 55.1219 33.2068 52.7229 31.0749C52.6978 31.0538 52.6772 31.0278 52.6623 30.9985C52.6473 30.9693 52.6383 30.9373 52.6358 30.9045C52.6333 30.8718 52.6374 30.8388 52.6477 30.8076C52.658 30.7764 52.6744 30.7476 52.696 30.7228L54.8577 28.1927C54.8799 28.1667 54.9069 28.1454 54.9373 28.13C54.9677 28.1145 55.0009 28.1053 55.0348 28.1027C55.1036 28.0979 55.1716 28.1192 55.2255 28.1623C57.3288 29.9544 59.208 30.7172 61.5121 30.7172C63.5875 30.7172 64.8757 29.8363 64.8757 28.4143C64.8757 27.1318 64.2389 26.4163 60.4593 25.5591C56.0226 24.5027 53.4539 23.1358 53.4539 19.2737C53.4539 15.6726 56.4319 13.1571 60.6936 13.1571C63.5919 13.1571 66.0743 14.0019 68.2752 15.7412C68.3829 15.8256 68.4042 15.9774 68.3257 16.0866L66.3983 18.7607C66.3572 18.8169 66.2955 18.8545 66.2268 18.8653C66.1579 18.8757 66.0878 18.8583 66.0317 18.8169C64.1817 17.4602 62.4158 16.8009 60.6353 16.8009C58.7988 16.8009 57.5643 17.6683 57.5643 18.9598C57.5643 20.3244 58.2662 20.9758 62.214 21.9017ZM45.6806 23.9976C45.6638 24.2462 45.6481 24.4937 45.6234 24.7389C45.6088 24.8852 45.5875 25.0292 45.5707 25.1732C45.5438 25.3948 45.518 25.6153 45.4855 25.8336C45.4619 25.9866 45.4339 26.1384 45.407 26.2903C45.3711 26.4984 45.3364 26.7066 45.2949 26.9124C45.2635 27.0677 45.2276 27.2207 45.1928 27.3748C45.148 27.5751 45.1032 27.7742 45.0527 27.9722C45.0135 28.1274 44.9697 28.2804 44.9271 28.4346C44.8733 28.6281 44.8195 28.8216 44.7601 29.0139C44.6549 29.3569 44.5413 29.6971 44.4192 30.0343C44.2426 30.5198 44.05 30.9993 43.8418 31.4721C43.6966 31.7962 43.5456 32.1176 43.3888 32.4362C43.2991 32.6151 43.2061 32.7906 43.113 32.9661C43.039 33.1033 42.9661 33.2394 42.8899 33.3756C42.7908 33.5505 42.6895 33.7241 42.586 33.8964C42.5075 34.0269 42.4302 34.1574 42.3495 34.2868C42.2407 34.4612 42.1275 34.6322 42.0131 34.8032C41.9312 34.9258 41.8516 35.0496 41.7675 35.1699C41.6465 35.3454 41.5198 35.5164 41.3931 35.6886C41.3101 35.8011 41.2305 35.9136 41.1453 36.0249C41.0062 36.2072 40.8616 36.3838 40.7158 36.5616C40.6385 36.6572 40.5634 36.7539 40.4849 36.8484C40.3066 37.0599 40.1216 37.2658 39.9366 37.4717C39.885 37.5268 39.8379 37.5853 39.7864 37.6404C39.5453 37.9003 39.2998 38.1546 39.0464 38.4032C39.0015 38.4482 38.9522 38.4909 38.9062 38.5359C38.7 38.7369 38.4899 38.9338 38.2761 39.1266C38.1853 39.2087 38.0911 39.2852 38.0003 39.3651C37.8254 39.5169 37.6516 39.6688 37.4722 39.8151C37.3634 39.9039 37.2524 39.9883 37.1425 40.0749C36.9744 40.2066 36.8073 40.3382 36.6358 40.4664C36.5158 40.5553 36.3936 40.6397 36.2725 40.7263L35.8924 40.9929C35.9283 40.9671 35.9675 40.9457 36.0045 40.9209C35.9619 40.9502 35.9182 40.9749 35.8756 41.0042C35.8397 41.0289 35.8049 41.0548 35.7691 41.0784C35.6401 41.1651 35.5101 41.2483 35.38 41.3316C35.1587 41.4748 34.9348 41.6139 34.7084 41.7489L34.6299 41.7939C34.6467 41.7849 34.6647 41.7759 34.6804 41.7658L34.446 41.9019C34.2801 41.9987 34.1142 42.0932 33.946 42.1854L33.7251 42.3024C33.5962 42.3711 33.465 42.4386 33.3338 42.5049L33.2654 42.5387C33.1645 42.5893 33.0658 42.6411 32.9638 42.6906C32.827 42.7558 32.6902 42.8211 32.5512 42.8852L32.4391 42.9347C32.3157 42.9909 32.1924 43.0461 32.0679 43.1001L32.0141 43.1237C31.9054 43.1709 31.7944 43.2159 31.6845 43.2621C31.493 43.3416 31.3001 43.4177 31.1059 43.4904C30.9748 43.5399 30.8447 43.5883 30.7135 43.6356L30.5442 43.6974C30.3996 43.7481 30.2527 43.7964 30.1058 43.8437C29.9859 43.8831 29.8659 43.9224 29.7448 43.9596L29.6966 43.9742C29.5665 44.0147 29.4365 44.0529 29.3053 44.0901L28.9308 44.1958C28.7705 44.2386 28.6112 44.2824 28.4498 44.3229L28.3679 44.3409L28.1661 44.3904C28.202 44.3826 28.2356 44.3713 28.2715 44.3634L28.0383 44.4163C28.0798 44.4062 28.1235 44.4006 28.1661 44.3904C28.0675 44.4141 27.9677 44.4321 27.869 44.4546L27.8544 44.4579C27.6941 44.4928 27.5349 44.5299 27.3734 44.5614C27.2064 44.5941 27.0382 44.6222 26.87 44.6503C26.7713 44.6672 26.6738 44.6886 26.5751 44.7043C26.6211 44.6964 26.6659 44.6852 26.7119 44.6773L26.4686 44.7178C26.5045 44.7122 26.5404 44.7099 26.5751 44.7043L26.4103 44.7279L26.278 44.7504C26.0549 44.7831 25.8295 44.8078 25.6042 44.8348C25.4584 44.8517 25.3126 44.8731 25.1646 44.8866L25.131 44.8911H25.1097C25.0492 44.8967 24.9864 44.8989 24.9258 44.9046C24.7868 44.9169 24.6478 44.9248 24.5087 44.9349C24.0367 44.9687 23.5613 44.9901 23.0814 44.9946C23.0388 44.9946 22.9985 45.0002 22.957 45.0002H22.7854C22.7451 45.0002 22.7069 44.9957 22.6666 44.9946C22.1757 44.9893 21.6851 44.9686 21.1955 44.9327C21.0621 44.9226 20.9276 44.9147 20.7942 44.9034C20.7403 44.8978 20.6854 44.8967 20.6305 44.8911H20.6103C20.2109 44.8503 19.8127 44.7985 19.4162 44.7358C19.4734 44.7448 19.5317 44.7493 19.5889 44.7572C19.4465 44.7358 19.3007 44.7234 19.1594 44.7009L18.9576 44.6649C19.0114 44.6739 19.0641 44.6886 19.1179 44.6976C19.0215 44.6818 18.9273 44.6593 18.8309 44.6424L18.7973 44.6368C18.7379 44.6267 18.6807 44.6121 18.6224 44.6019C18.2427 44.534 17.8647 44.4567 17.4888 44.3702L17.5965 44.3916L17.4193 44.3511L17.4888 44.3702C17.3262 44.3319 17.1682 44.2836 17.0067 44.2408L17.0325 44.2476C17.0157 44.2442 17 44.2386 16.9832 44.2341L17.0067 44.2408C16.6804 44.1564 16.3542 44.0721 16.0335 43.9742L15.9931 43.9629C15.9494 43.9494 15.9068 43.9337 15.8631 43.9191L15.8429 43.9123C15.6624 43.8549 15.4852 43.7886 15.3058 43.7267L15.539 43.8066C15.4157 43.7649 15.2935 43.7211 15.1713 43.6772L15.3058 43.7267C15.0311 43.6322 14.7564 43.5377 14.4873 43.4331L14.3517 43.3802C14.3326 43.3723 14.3147 43.3633 14.2956 43.3566C14.1111 43.282 13.9276 43.2051 13.7451 43.1259C13.8651 43.1777 13.9862 43.2261 14.1061 43.2756C13.9279 43.2024 13.7507 43.1248 13.5747 43.0483C13.6319 43.0731 13.6879 43.1012 13.7451 43.1259C13.5567 43.0449 13.3661 42.9662 13.18 42.8796L13.1396 42.8627C13.115 42.8514 13.0892 42.8413 13.0645 42.8289C12.9759 42.7884 12.8919 42.7389 12.8044 42.6973C12.625 42.6096 12.4456 42.5241 12.2685 42.4329C12.4198 42.5106 12.5745 42.5826 12.7282 42.6579C12.5082 42.5503 12.2899 42.4393 12.0734 42.3249C12.1395 42.3598 12.2023 42.3981 12.2685 42.4329C12.1193 42.3553 11.9713 42.2788 11.8245 42.1989L11.7706 42.1708C11.7157 42.1416 11.6619 42.1089 11.6081 42.0786C11.5374 42.0403 11.4713 41.9964 11.4018 41.9559L11.3423 41.9222L11.3726 41.9391C11.1293 41.7996 10.8894 41.6578 10.6528 41.5104C10.7234 41.5543 10.7907 41.6038 10.8625 41.6477C10.747 41.5779 10.6349 41.5037 10.5216 41.4328L10.5115 41.4261L10.3389 41.3169C10.2514 41.2607 10.1684 41.1988 10.0821 41.1414C9.89709 41.0188 9.70761 40.9029 9.52597 40.7747C9.66164 40.8703 9.80628 40.9547 9.94419 41.0469C9.702 40.8849 9.45758 40.7263 9.22212 40.5542L9.27146 40.5913C9.25464 40.5801 9.23894 40.5666 9.22212 40.5542C9.00237 40.3922 8.78821 40.2234 8.57406 40.0547L8.56397 40.0468L8.56173 40.0457C8.46755 39.9703 8.37112 39.8983 8.27694 39.8218L8.27582 39.8207L8.23882 39.7892C7.9787 39.5754 7.72082 39.3572 7.47079 39.1322L7.45061 39.1153L7.43491 39.1007C7.34297 39.0186 7.25776 38.9319 7.16806 38.8476C6.99091 38.6833 6.81376 38.5191 6.64221 38.3492L6.62091 38.3289C6.55028 38.2592 6.483 38.1861 6.41349 38.1152C6.46955 38.1726 6.52224 38.2333 6.57943 38.2896C6.52224 38.2322 6.46843 38.1714 6.41124 38.1129L6.31931 38.0162C6.16346 37.8542 6.00649 37.6944 5.85512 37.5279L5.85288 37.5246C5.76655 37.4301 5.68246 37.3333 5.59837 37.2377L5.53334 37.1623C5.30502 36.9008 5.08222 36.6345 4.86509 36.3636C4.84267 36.3366 4.82137 36.3073 4.80006 36.2792C4.58915 36.0139 4.38428 35.7438 4.18564 35.4692C4.16097 35.4343 4.13855 35.3983 4.11388 35.3646C3.98787 35.1865 3.86416 35.0069 3.74276 34.8257C3.68109 34.7334 3.61718 34.6412 3.55664 34.5467C3.52861 34.5039 3.50394 34.4601 3.47703 34.4173C3.36289 34.2383 3.2515 34.0575 3.14291 33.8751C3.12946 33.8503 3.11376 33.8267 3.09918 33.8031C3.0577 33.7344 3.01509 33.6669 2.97473 33.5972C2.94446 33.5454 2.91755 33.4914 2.8884 33.4386C2.78337 33.2518 2.68095 33.0635 2.58118 32.8738C2.53297 32.7849 2.48252 32.6983 2.43655 32.6083C2.4074 32.5521 2.38161 32.4947 2.35358 32.4384C2.2542 32.2392 2.15851 32.0382 2.06655 31.8354C2.02955 31.7578 1.99031 31.6802 1.95443 31.6014L1.89612 31.4653C1.79185 31.2313 1.69431 30.9939 1.599 30.7554L1.52052 30.5653L1.488 30.4764C1.37739 30.1889 1.27309 29.899 1.17518 29.6068L1.13706 29.4988L1.12585 29.4639C0.848632 28.6282 0.621737 27.7766 0.446396 26.9136L0.437427 26.8686C0.419487 26.7797 0.407154 26.6897 0.390336 26.6019C0.340949 26.347 0.296094 26.0912 0.25579 25.8347L0.238972 25.7357C0.221033 25.6097 0.20982 25.4814 0.194124 25.3543C0.162842 25.1238 0.135555 24.8928 0.112275 24.6613C0.110033 24.6388 0.105548 24.6163 0.104427 24.5927C0.101063 24.5623 0.102184 24.5308 0.0999417 24.4993C0.0381697 23.8362 0.00636946 23.1707 0.00463867 22.5047C0.00463867 22.2156 0.0158508 21.9276 0.0270629 21.6407C0.0337902 21.4776 0.0405175 21.3144 0.0494872 21.1513C0.0629417 20.9342 0.0808811 20.7193 0.0999417 20.5044C0.0876084 20.6349 0.0707902 20.7654 0.0618205 20.8971C0.0707902 20.7643 0.0887296 20.6338 0.0999417 20.5011C0.114517 20.3391 0.129093 20.1782 0.147033 20.0173C0.171699 19.8036 0.19973 19.5898 0.230002 19.3772C0.252427 19.2174 0.274851 19.0588 0.300639 18.9013V18.9002C0.335396 18.6898 0.374639 18.4806 0.415002 18.2724V18.2702C0.445275 18.1138 0.475548 17.9574 0.509184 17.8022V17.8011C0.554829 17.5941 0.60342 17.3879 0.654942 17.1823C0.691942 17.0293 0.730063 16.8752 0.771548 16.7233V16.7211C0.826487 16.5186 0.88479 16.3194 0.945336 16.1203L0.946457 16.1158C0.991305 15.9651 1.03615 15.8132 1.08437 15.6647L1.08549 15.6613C1.1494 15.4644 1.21779 15.2698 1.28731 15.0752L1.28955 15.0696C1.34224 14.9222 1.39382 14.7748 1.44988 14.6286L1.451 14.6252C1.52388 14.4328 1.60124 14.2438 1.67861 14.0548L1.68197 14.0469C1.7414 13.9029 1.80082 13.7578 1.86249 13.6149L1.86473 13.6116C1.94871 13.423 2.03505 13.2355 2.12373 13.0491C2.18988 12.9084 2.25491 12.7667 2.32443 12.6283L2.32667 12.6238C2.41637 12.4427 2.51055 12.2649 2.60585 12.0872L2.61146 12.0759C2.68434 11.9398 2.75609 11.8014 2.83234 11.6664L2.83458 11.6619C2.93212 11.4876 3.03528 11.3154 3.13731 11.1433L3.14515 11.1309C3.22476 10.9982 3.30324 10.8643 3.38509 10.7327L3.38846 10.7282C3.49385 10.5594 3.60373 10.3941 3.71361 10.2287L3.72258 10.2141C3.80891 10.0858 3.893 9.95644 3.98158 9.82932L3.98494 9.82369C4.09706 9.66169 4.21479 9.50307 4.3314 9.34332L4.34373 9.32757C4.43567 9.20269 4.52537 9.07782 4.61955 8.95519L4.62403 8.94956C4.74288 8.79431 4.86734 8.64244 4.99179 8.48944L5.00524 8.47257C5.10279 8.35219 5.19921 8.23182 5.299 8.11369C5.30015 8.11156 5.30167 8.10966 5.30349 8.10806C5.42906 7.95956 5.56024 7.81332 5.6903 7.66819L5.70712 7.65019C5.81027 7.53432 5.91118 7.41844 6.01658 7.30481L6.02218 7.30032C6.15449 7.15744 6.2924 7.01907 6.42806 6.88069L6.44712 6.86157C6.55588 6.75132 6.6624 6.63994 6.7734 6.53194C6.77521 6.53035 6.77673 6.52844 6.77788 6.52632L6.81824 6.48582L6.78012 6.52519C6.90009 6.40819 7.02455 6.29569 7.14676 6.18094C7.04585 6.27544 6.94158 6.36657 6.84179 6.46219C6.95952 6.34857 7.08285 6.23944 7.20282 6.12807L7.22412 6.10894C7.33849 6.00319 7.45061 5.89632 7.56609 5.79394L7.5717 5.78944C7.69615 5.67806 7.82621 5.57232 7.95403 5.46319C7.8464 5.55432 7.73652 5.64094 7.63112 5.73432C7.7567 5.62407 7.88676 5.51944 8.01346 5.41256C8.02145 5.40554 8.02968 5.39879 8.03812 5.39232C8.15585 5.29332 8.27246 5.19207 8.39243 5.09532L8.39803 5.09082L8.45634 5.04244L8.39915 5.08969C8.52921 4.98507 8.66264 4.88494 8.79494 4.78369C8.68282 4.87031 8.56734 4.95356 8.45634 5.04244C8.58752 4.93669 8.7243 4.83657 8.85885 4.73419L8.88464 4.71394C9.00797 4.62057 9.12794 4.52606 9.2524 4.43494L9.25688 4.43156L9.31406 4.38882L9.26024 4.42931C9.39591 4.33031 9.53382 4.23694 9.67061 4.14131C9.55288 4.22456 9.43067 4.30332 9.31406 4.38882C9.45197 4.28757 9.59549 4.19306 9.73676 4.09631L9.76591 4.07606C9.89149 3.98831 10.0159 3.89944 10.1438 3.81506L10.1482 3.81169L10.2032 3.77456L10.1539 3.80831C10.294 3.71606 10.4386 3.62944 10.5799 3.53944C10.4555 3.61819 10.3265 3.69356 10.2032 3.77456C10.3489 3.67894 10.4981 3.59006 10.6461 3.49781L10.6786 3.47869C10.8075 3.39769 10.9353 3.31444 11.0665 3.23681L11.071 3.23457C11.0882 3.22304 11.1057 3.21215 11.1237 3.20194L11.0789 3.23006C11.2246 3.14344 11.3737 3.06244 11.5217 2.97919C11.3894 3.05344 11.2538 3.12431 11.1237 3.20194C11.2751 3.11194 11.432 3.02869 11.5856 2.94319L11.6215 2.92294C11.7538 2.84981 11.8839 2.77331 12.0173 2.70131C12.019 2.70101 12.0205 2.70023 12.0218 2.69906L12.0722 2.67206L12.0319 2.69456C12.1844 2.61356 12.3413 2.53819 12.4949 2.46056C12.3548 2.53144 12.2113 2.59781 12.0722 2.67206C12.2315 2.58769 12.394 2.51119 12.5544 2.43019C12.5678 2.4245 12.5809 2.41811 12.5936 2.41106C12.7282 2.34469 12.8605 2.27494 12.9972 2.21082L13.0006 2.20857L13.0488 2.18494L13.0141 2.20294C13.1744 2.12756 13.3381 2.05781 13.5007 1.98581C13.3504 2.05331 13.1979 2.11519 13.0488 2.18494C13.2148 2.10732 13.3841 2.03756 13.5522 1.96331L13.5949 1.94419C13.7305 1.88456 13.8651 1.82157 14.003 1.76532L14.0063 1.76307C14.0215 1.75717 14.0364 1.75079 14.0512 1.74394L14.022 1.75744C14.1925 1.68657 14.3662 1.62356 14.5389 1.55719C14.3763 1.61906 14.2126 1.67869 14.0512 1.74394C14.2239 1.67306 14.401 1.61007 14.5759 1.54257L14.6241 1.52456C14.7609 1.47169 14.8955 1.41656 15.0345 1.36594H15.0367C15.0507 1.36002 15.0649 1.35476 15.0793 1.35019L15.0547 1.35919C15.2397 1.29281 15.4292 1.23432 15.6164 1.17244C15.437 1.23207 15.2565 1.28719 15.0793 1.35019C15.2599 1.28607 15.4437 1.22982 15.6254 1.16906L15.6814 1.15107C15.8182 1.10607 15.9516 1.05769 16.0884 1.01606H16.0907L16.1299 1.00369L16.1109 1.01044C16.3059 0.950815 16.5044 0.899065 16.7006 0.845065L16.6703 0.854065L16.7488 0.831565L16.8172 0.81244C16.9338 0.78094 17.0482 0.746065 17.1659 0.71569H17.167L17.2018 0.70669L17.1906 0.710065C17.3924 0.65944 17.5976 0.61669 17.8016 0.57169L17.7299 0.58744C17.833 0.563815 17.9351 0.539065 18.0393 0.51769L18.138 0.49519C18.1806 0.48619 18.2221 0.47494 18.2636 0.467065L18.2647 0.46594L18.295 0.46144L18.2905 0.462565C18.5013 0.419815 18.7154 0.386065 18.9296 0.350065L18.8152 0.36919C19.0058 0.336565 19.1942 0.298315 19.3848 0.27019L19.3859 0.269065L19.405 0.266815H19.4095C19.5799 0.24094 19.7537 0.224065 19.9252 0.201565C19.8097 0.21619 19.692 0.22969 19.5765 0.24544C19.7469 0.221815 19.9196 0.201565 20.0912 0.181315L19.9252 0.201565C20.1237 0.176815 20.321 0.147565 20.5217 0.127315H20.5228L20.5464 0.125065H20.5475C20.7168 0.10819 20.8883 0.0991899 21.0588 0.0868149L20.8917 0.0991899C21.033 0.0879399 21.1731 0.0766899 21.3144 0.0676899L21.0588 0.0868149C21.2639 0.0710649 21.468 0.0508149 21.6743 0.0406899H21.6754L21.7012 0.0395649C21.8716 0.0305649 22.0443 0.0305649 22.2147 0.0260649L22.1194 0.0283149C22.3695 0.0204399 22.6184 0.0103149 22.8706 0.0103149C35.5 0.0103149 45.7366 10.0802 45.7366 22.5047C45.7366 22.8816 45.7254 23.2562 45.7075 23.6286C45.7008 23.7523 45.6884 23.8749 45.6806 23.9976ZM9.60446 29.7002C9.77825 30.4539 10.544 30.9264 11.3109 30.7532C19.2693 28.9644 26.028 29.6934 31.3963 32.9222C32.0691 33.3249 32.947 33.1191 33.3573 32.4542C33.4547 32.2972 33.5197 32.1223 33.5486 31.9397C33.5775 31.7571 33.5697 31.5706 33.5256 31.3911C33.4815 31.2116 33.402 31.0427 33.2919 30.8945C33.1817 30.7463 33.0431 30.6218 32.8842 30.5282C26.8565 26.9034 19.3859 26.0608 10.6752 28.0206C10.4942 28.0588 10.3225 28.1328 10.1703 28.2383C10.0181 28.3438 9.88838 28.4786 9.78869 28.635C9.68901 28.7914 9.62137 28.9661 9.58974 29.149C9.55811 29.3319 9.56311 29.5193 9.60446 29.7002ZM8.69179 23.1178C8.97882 24.0437 9.97446 24.5657 10.9185 24.2856C18.1885 22.1154 27.5584 23.1909 33.7027 26.9079C34.5402 27.4131 35.639 27.1554 36.1548 26.3319C36.2769 26.1357 36.3588 25.9169 36.3955 25.6885C36.4322 25.4601 36.423 25.2266 36.3685 25.0017C36.314 24.7769 36.2152 24.5653 36.078 24.3793C35.9408 24.1933 35.7679 24.0368 35.5695 23.9188C28.5103 19.6539 18.1873 18.4513 9.8814 20.9308C9.65943 20.9949 9.45234 21.1025 9.27211 21.2474C9.09188 21.3923 8.94211 21.5717 8.83146 21.7751C8.72081 21.9785 8.6515 22.2019 8.62752 22.4324C8.60354 22.6629 8.62539 22.8959 8.69179 23.1178ZM38.5788 16.3329C30.0935 11.3773 16.667 10.9116 8.58976 13.3247C8.32336 13.4012 8.07479 13.5301 7.8585 13.704C7.64222 13.8778 7.46255 14.093 7.32994 14.3371C7.19733 14.5813 7.11442 14.8494 7.08606 15.126C7.05769 15.4026 7.08442 15.6821 7.1647 15.9482C7.50667 17.0608 8.70076 17.6874 9.83206 17.3499C16.8677 15.2496 29.025 15.6467 36.3969 19.9521C36.8844 20.2376 37.4639 20.3203 38.0114 20.1826C38.559 20.0449 39.031 19.6977 39.3267 19.2152C39.4698 18.9776 39.5641 18.7137 39.6039 18.439C39.6438 18.1643 39.6284 17.8844 39.5587 17.6158C39.489 17.3471 39.3664 17.0952 39.1981 16.8749C39.0298 16.6546 38.8192 16.4703 38.5788 16.3329ZM22.8101 0.0103149H22.8706C22.6509 0.0103149 22.4334 0.0204399 22.2147 0.0260649C22.4132 0.0204399 22.6105 0.0103149 22.8101 0.0103149ZM120.76 18.3894C120.904 18.3894 121.019 18.5031 121.019 18.6448V33.8154C121.019 33.8839 120.991 33.9493 120.943 33.9973C120.894 34.0454 120.829 34.0722 120.76 34.0719H117.225C117.157 34.0722 117.091 34.0454 117.043 33.9973C116.994 33.9493 116.967 33.8839 116.966 33.8154V18.6448C116.966 18.5031 117.083 18.3894 117.225 18.3894H120.76ZM145.754 29.2569C147.016 29.2569 147.997 30.2672 147.997 31.4934C147.995 32.0918 147.757 32.665 147.334 33.0872C146.912 33.5093 146.339 33.7458 145.743 33.7446C145.449 33.7466 145.157 33.6902 144.885 33.5786C144.613 33.467 144.365 33.3024 144.156 33.0942C143.948 32.8861 143.782 32.6386 143.67 32.3659C143.557 32.0933 143.499 31.801 143.5 31.5058C143.5 30.2784 144.494 29.2569 145.754 29.2569ZM145.743 33.5196C146.009 33.5221 146.273 33.4715 146.519 33.3705C146.765 33.2696 146.989 33.1205 147.177 32.9318C147.365 32.7432 147.513 32.5188 147.614 32.2718C147.715 32.0248 147.765 31.7602 147.762 31.4934C147.765 31.2281 147.716 30.9647 147.616 30.719C147.516 30.4732 147.368 30.25 147.181 30.0624C146.994 29.8748 146.771 29.7266 146.526 29.6265C146.281 29.5264 146.019 29.4765 145.754 29.4797C144.606 29.4797 143.736 30.3898 143.736 31.5058C143.736 32.6218 144.6 33.5196 145.743 33.5196ZM146.798 31.0108C146.798 31.3944 146.575 31.6307 146.251 31.7241L146.886 32.6094H146.351L145.78 31.7961H145.289V32.6094H144.841V30.2616H145.891C146.438 30.2616 146.798 30.5406 146.798 31.0108ZM145.289 30.6632V31.4068H145.873C146.165 31.4068 146.339 31.2651 146.339 31.0344C146.339 30.7937 146.165 30.6632 145.873 30.6632H145.289Z" fill="black"/>
</g>
<defs>
<clipPath id="clip0_494_10983">
<rect width="148" height="45" fill="white"/>
</clipPath>
</defs>
</svg>
